<?xml version="1.0" encoding="UTF-8"?><svg xmlns="http://www.w3.org/2000/svg" xmlns:xlink="http://www.w3.org/1999/xlink" contentScriptType="text/ecmascript" width="375pt" zoomAndPan="magnify" contentStyleType="text/css" viewBox="0 0 375 374.999991" height="374.999991pt" preserveAspectRatio="xMidYMid meet" version="1.2"><defs><g/><filter x="0%" y="0%" width="100%" xmlns:xlink="http://www.w3.org/1999/xlink" xlink:type="simple" filterUnits="objectBoundingBox" xlink:actuate="onLoad" id="alpha" height="100%" xlink:show="other" xml:id="alpha"><feColorMatrix values="0 0 0 0 1 0 0 0 0 1 0 0 0 0 1 0 0 0 1 0" type="matrix" in="SourceGraphic"/></filter><mask xml:id="mask0" id="mask0"><g filter="url(#alpha)"><rect x="0" width="375" y="0" height="374.999991" style="fill:rgb(0%,0%,0%);fill-opacity:0.3294;stroke:none;"/></g></mask><g xml:id="surface5" id="surface5"><g clip-rule="nonzero"><path style=" stroke:none;fill-rule:nonzero;fill:rgb(32.939148%,32.939148%,32.939148%);fill-opacity:1;" d="M 144.792969 62.867188 L 108.8125 125.117188 L 36.878906 125.117188 L 0.898438 62.867188 L 36.878906 0.617188 L 108.8125 0.617188 Z M 144.792969 62.867188 "/></g><path style=" stroke:none;fill-rule:nonzero;fill:rgb(32.939148%,32.939148%,32.939148%);fill-opacity:1;" d="M 37.007812 115.828125 L 9.023438 67.398438 C 7.402344 64.609375 7.402344 61.15625 9.023438 58.335938 L 37.007812 9.902344 C 38.625 7.113281 41.609375 5.371094 44.875 5.371094 L 100.847656 5.371094 C 104.085938 5.371094 107.066406 7.082031 108.71875 9.902344 L 136.703125 58.335938 C 138.320312 61.125 138.320312 64.578125 136.703125 67.398438 L 108.71875 115.828125 C 107.097656 118.617188 104.117188 120.363281 100.847656 120.363281 L 44.84375 120.363281 C 41.609375 120.363281 38.625 118.617188 37.007812 115.828125 Z M 37.007812 115.828125 "/><path style=" stroke:none;fill-rule:nonzero;fill:rgb(32.939148%,32.939148%,32.939148%);fill-opacity:1;" d="M 135.179688 59.222656 L 107.160156 10.789062 C 105.859375 8.539062 103.417969 7.144531 100.816406 7.144531 L 44.84375 7.144531 C 42.242188 7.144531 39.800781 8.539062 38.5 10.789062 L 10.511719 59.222656 C 9.847656 60.363281 9.53125 61.628906 9.53125 62.867188 C 9.53125 64.101562 9.847656 65.402344 10.511719 66.511719 L 38.5 114.941406 C 39.800781 117.191406 42.242188 118.585938 44.84375 118.585938 L 100.816406 118.585938 C 103.417969 118.585938 105.859375 117.191406 107.160156 114.941406 L 135.179688 66.511719 C 135.8125 65.402344 136.132812 64.132812 136.132812 62.867188 C 136.132812 61.597656 135.8125 60.332031 135.179688 59.222656 Z M 134.894531 66.351562 L 106.910156 114.785156 C 105.671875 116.9375 103.324219 118.269531 100.847656 118.269531 L 44.84375 118.269531 C 42.339844 118.269531 40.023438 116.9375 38.785156 114.785156 L 10.800781 66.351562 C 10.164062 65.277344 9.878906 64.070312 9.878906 62.867188 C 9.878906 61.664062 10.195312 60.457031 10.800781 59.378906 L 38.785156 10.949219 C 40.023438 8.792969 42.371094 7.464844 44.84375 7.464844 L 100.816406 7.464844 C 103.324219 7.464844 105.640625 8.792969 106.875 10.949219 L 134.894531 59.378906 C 135.527344 60.457031 135.8125 61.664062 135.8125 62.867188 C 135.8125 64.070312 135.496094 65.277344 134.894531 66.351562 Z M 134.894531 66.351562 "/></g><mask xml:id="mask1" id="mask1"><g filter="url(#alpha)"><rect x="0" width="375" y="0" height="374.999991" style="fill:rgb(0%,0%,0%);fill-opacity:0.6;stroke:none;"/></g></mask><g xml:id="surface8" id="surface8"><g style="fill:rgb(32.939148%,32.939148%,32.939148%);fill-opacity:1;"><g transform="translate(0.81923, 64.337863)"><path style="stroke:none;" d="M 0.6875 -1.734375 L 19.71875 -48.59375 L 26.9375 -48.59375 L 45.671875 -1.734375 L 39.640625 0.6875 L 34.21875 -13.1875 L 11.734375 -13.1875 L 6.3125 0.5625 Z M 13.8125 -18.75 L 32.078125 -18.75 L 22.984375 -42.0625 Z M 13.8125 -18.75 "/></g></g><g clip-rule="nonzero"><g style="fill:rgb(32.939148%,32.939148%,32.939148%);fill-opacity:1;"><g transform="translate(36.008294, 64.337863)"><path style="stroke:none;" d="M 23.8125 -21.109375 L 23.8125 -9.78125 L 17.90625 -9.78125 L 17.90625 -21.109375 L 7.296875 -21.109375 L 7.296875 -26.515625 L 17.90625 -26.515625 L 17.90625 -37.828125 L 23.8125 -37.828125 L 23.8125 -26.515625 L 34.359375 -26.515625 L 34.359375 -21.109375 Z M 23.8125 -21.109375 "/></g></g></g></g></defs><g xml:id="surface1" id="surface1"><use transform="matrix(1,0,0,1,122,118)" xmlns:xlink="http://www.w3.org/1999/xlink" xlink:href="#surface5" xlink:type="simple" mask="url(#mask0)" xlink:actuate="onLoad" xlink:show="embed"/><g clip-rule="nonzero"><path style=" stroke:none;fill-rule:nonzero;fill:rgb(32.939148%,32.939148%,32.939148%);fill-opacity:1;" d="M 257.445312 177.117188 L 222.402344 237.867188 L 152.351562 237.867188 L 117.308594 177.117188 L 152.351562 116.367188 L 222.402344 116.367188 Z M 257.445312 177.117188 "/></g><path style=" stroke:none;fill-rule:nonzero;fill:rgb(31.759644%,72.158813%,38.42926%);fill-opacity:1;" d="M 152.476562 228.804688 L 125.21875 181.539062 C 123.644531 178.816406 123.644531 175.445312 125.21875 172.695312 L 152.476562 125.429688 C 154.050781 122.707031 156.957031 121.007812 160.136719 121.007812 L 214.648438 121.007812 C 217.800781 121.007812 220.703125 122.675781 222.3125 125.429688 L 249.566406 172.695312 C 251.140625 175.414062 251.140625 178.785156 249.566406 181.539062 L 222.3125 228.804688 C 220.734375 231.527344 217.832031 233.226562 214.648438 233.226562 L 160.105469 233.226562 C 156.957031 233.226562 154.050781 231.527344 152.476562 228.804688 Z M 152.476562 228.804688 "/><path style=" stroke:none;fill-rule:nonzero;fill:rgb(100%,100%,100%);fill-opacity:1;" d="M 248.082031 173.558594 L 220.796875 126.296875 C 219.53125 124.101562 217.152344 122.738281 214.617188 122.738281 L 160.105469 122.738281 C 157.574219 122.738281 155.195312 124.101562 153.925781 126.296875 L 126.671875 173.558594 C 126.023438 174.671875 125.714844 175.910156 125.714844 177.117188 C 125.714844 178.324219 126.023438 179.589844 126.671875 180.675781 L 153.925781 227.9375 C 155.195312 230.132812 157.574219 231.496094 160.105469 231.496094 L 214.617188 231.496094 C 217.152344 231.496094 219.53125 230.132812 220.796875 227.9375 L 248.082031 180.675781 C 248.699219 179.589844 249.007812 178.355469 249.007812 177.117188 C 249.007812 175.878906 248.699219 174.640625 248.082031 173.558594 Z M 247.804688 180.519531 L 220.550781 227.78125 C 219.34375 229.886719 217.058594 231.183594 214.648438 231.183594 L 160.105469 231.183594 C 157.667969 231.183594 155.410156 229.886719 154.207031 227.78125 L 126.949219 180.519531 C 126.332031 179.46875 126.054688 178.292969 126.054688 177.117188 C 126.054688 175.941406 126.363281 174.765625 126.949219 173.714844 L 154.207031 126.449219 C 155.410156 124.347656 157.695312 123.046875 160.105469 123.046875 L 214.617188 123.046875 C 217.058594 123.046875 219.3125 124.347656 220.519531 126.449219 L 247.804688 173.714844 C 248.421875 174.765625 248.699219 175.941406 248.699219 177.117188 C 248.699219 178.292969 248.390625 179.46875 247.804688 180.519531 Z M 247.804688 180.519531 "/><use transform="matrix(1,0,0,1,157,139)" xmlns:xlink="http://www.w3.org/1999/xlink" xlink:href="#surface8" xlink:type="simple" mask="url(#mask1)" xlink:actuate="onLoad" xlink:show="embed"/><g style="fill:rgb(100%,100%,100%);fill-opacity:1;"><g transform="translate(156.319237, 199.662731)"><path style="stroke:none;" d="M 0.6875 -1.734375 L 19.71875 -48.59375 L 26.9375 -48.59375 L 45.671875 -1.734375 L 39.640625 0.6875 L 34.21875 -13.1875 L 11.734375 -13.1875 L 6.3125 0.5625 Z M 13.8125 -18.75 L 32.078125 -18.75 L 22.984375 -42.0625 Z M 13.8125 -18.75 "/></g></g><g style="fill:rgb(100%,100%,100%);fill-opacity:1;"><g transform="translate(191.508301, 199.662731)"><path style="stroke:none;" d="M 23.8125 -21.109375 L 23.8125 -9.78125 L 17.90625 -9.78125 L 17.90625 -21.109375 L 7.296875 -21.109375 L 7.296875 -26.515625 L 17.90625 -26.515625 L 17.90625 -37.828125 L 23.8125 -37.828125 L 23.8125 -26.515625 L 34.359375 -26.515625 L 34.359375 -21.109375 Z M 23.8125 -21.109375 "/></g></g></g></svg>