<?xml version="1.0" encoding="UTF-8"?><svg xmlns="http://www.w3.org/2000/svg" xmlns:xlink="http://www.w3.org/1999/xlink" contentScriptType="text/ecmascript" width="375pt" zoomAndPan="magnify" contentStyleType="text/css" viewBox="0 0 375 374.999991" height="374.999991pt" preserveAspectRatio="xMidYMid meet" version="1.2"><defs><g/><filter x="0%" y="0%" width="100%" xmlns:xlink="http://www.w3.org/1999/xlink" xlink:type="simple" filterUnits="objectBoundingBox" xlink:actuate="onLoad" id="alpha" height="100%" xlink:show="other" xml:id="alpha"><feColorMatrix values="0 0 0 0 1 0 0 0 0 1 0 0 0 0 1 0 0 0 1 0" type="matrix" in="SourceGraphic"/></filter><clipPath xml:id="clip2" id="clip2"><path d="M 0.878906 0.617188 L 144.847656 0.617188 L 144.847656 125.117188 L 0.878906 125.117188 Z M 0.878906 0.617188 "/></clipPath><clipPath xml:id="clip1" id="clip1"><rect x="0" width="146" y="0" height="126"/></clipPath><clipPath xml:id="clip3" id="clip3"><path d="M 117.253906 116.367188 L 257.503906 116.367188 L 257.503906 237.867188 L 117.253906 237.867188 Z M 117.253906 116.367188 "/></clipPath><clipPath xml:id="clip5" id="clip5"><path d="M 5 14 L 40.800781 14 L 40.800781 66 L 5 66 Z M 5 14 "/></clipPath><clipPath xml:id="clip4" id="clip4"><rect x="0" width="41" y="0" height="83"/></clipPath></defs><g xml:id="surface1" id="surface1"><g mask="url(#mask0)" transform="matrix(1,0,0,1,122,118)"><g xml:id="surface5" id="surface5" clip-path="url(#clip1)"><g clip-rule="nonzero" clip-path="url(#clip2)"><path style=" stroke:none;fill-rule:nonzero;fill:rgb(32.939148%,32.939148%,32.939148%);fill-opacity:1;" d="M 144.792969 62.867188 L 108.8125 125.117188 L 36.878906 125.117188 L 0.898438 62.867188 L 36.878906 0.617188 L 108.8125 0.617188 Z M 144.792969 62.867188 "/></g><path style=" stroke:none;fill-rule:nonzero;fill:rgb(32.939148%,32.939148%,32.939148%);fill-opacity:1;" d="M 37.007812 115.828125 L 9.023438 67.398438 C 7.402344 64.609375 7.402344 61.15625 9.023438 58.335938 L 37.007812 9.902344 C 38.625 7.113281 41.609375 5.371094 44.875 5.371094 L 100.847656 5.371094 C 104.085938 5.371094 107.066406 7.082031 108.71875 9.902344 L 136.703125 58.335938 C 138.320312 61.125 138.320312 64.578125 136.703125 67.398438 L 108.71875 115.828125 C 107.097656 118.617188 104.117188 120.363281 100.847656 120.363281 L 44.84375 120.363281 C 41.609375 120.363281 38.625 118.617188 37.007812 115.828125 Z M 37.007812 115.828125 "/><path style=" stroke:none;fill-rule:nonzero;fill:rgb(32.939148%,32.939148%,32.939148%);fill-opacity:1;" d="M 135.179688 59.222656 L 107.160156 10.789062 C 105.859375 8.539062 103.417969 7.144531 100.816406 7.144531 L 44.84375 7.144531 C 42.242188 7.144531 39.800781 8.539062 38.5 10.789062 L 10.511719 59.222656 C 9.847656 60.363281 9.53125 61.628906 9.53125 62.867188 C 9.53125 64.101562 9.847656 65.402344 10.511719 66.511719 L 38.5 114.941406 C 39.800781 117.191406 42.242188 118.585938 44.84375 118.585938 L 100.816406 118.585938 C 103.417969 118.585938 105.859375 117.191406 107.160156 114.941406 L 135.179688 66.511719 C 135.8125 65.402344 136.132812 64.132812 136.132812 62.867188 C 136.132812 61.597656 135.8125 60.332031 135.179688 59.222656 Z M 134.894531 66.351562 L 106.910156 114.785156 C 105.671875 116.9375 103.324219 118.269531 100.847656 118.269531 L 44.84375 118.269531 C 42.339844 118.269531 40.023438 116.9375 38.785156 114.785156 L 10.800781 66.351562 C 10.164062 65.277344 9.878906 64.070312 9.878906 62.867188 C 9.878906 61.664062 10.195312 60.457031 10.800781 59.378906 L 38.785156 10.949219 C 40.023438 8.792969 42.371094 7.464844 44.84375 7.464844 L 100.816406 7.464844 C 103.324219 7.464844 105.640625 8.792969 106.875 10.949219 L 134.894531 59.378906 C 135.527344 60.457031 135.8125 61.664062 135.8125 62.867188 C 135.8125 64.070312 135.496094 65.277344 134.894531 66.351562 Z M 134.894531 66.351562 "/></g><mask xml:id="mask0" id="mask0"><g filter="url(#alpha)"><rect x="0" width="375" y="0" height="374.999991" style="fill:rgb(0%,0%,0%);fill-opacity:0.3294;stroke:none;"/></g></mask></g><g clip-rule="nonzero" clip-path="url(#clip3)"><path style=" stroke:none;fill-rule:nonzero;fill:rgb(32.939148%,32.939148%,32.939148%);fill-opacity:1;" d="M 257.445312 177.117188 L 222.402344 237.867188 L 152.351562 237.867188 L 117.308594 177.117188 L 152.351562 116.367188 L 222.402344 116.367188 Z M 257.445312 177.117188 "/></g><path style=" stroke:none;fill-rule:nonzero;fill:rgb(100%,56.469727%,27.059937%);fill-opacity:1;" d="M 152.476562 228.804688 L 125.21875 181.539062 C 123.644531 178.816406 123.644531 175.445312 125.21875 172.695312 L 152.476562 125.429688 C 154.050781 122.707031 156.957031 121.007812 160.136719 121.007812 L 214.648438 121.007812 C 217.800781 121.007812 220.703125 122.675781 222.3125 125.429688 L 249.566406 172.695312 C 251.140625 175.414062 251.140625 178.785156 249.566406 181.539062 L 222.3125 228.804688 C 220.734375 231.527344 217.832031 233.226562 214.648438 233.226562 L 160.105469 233.226562 C 156.957031 233.226562 154.050781 231.527344 152.476562 228.804688 Z M 152.476562 228.804688 "/><path style=" stroke:none;fill-rule:nonzero;fill:rgb(100%,100%,100%);fill-opacity:1;" d="M 248.082031 173.558594 L 220.796875 126.296875 C 219.53125 124.101562 217.152344 122.738281 214.617188 122.738281 L 160.105469 122.738281 C 157.574219 122.738281 155.195312 124.101562 153.925781 126.296875 L 126.671875 173.558594 C 126.023438 174.671875 125.714844 175.910156 125.714844 177.117188 C 125.714844 178.324219 126.023438 179.589844 126.671875 180.675781 L 153.925781 227.9375 C 155.195312 230.132812 157.574219 231.496094 160.105469 231.496094 L 214.617188 231.496094 C 217.152344 231.496094 219.53125 230.132812 220.796875 227.9375 L 248.082031 180.675781 C 248.699219 179.589844 249.007812 178.355469 249.007812 177.117188 C 249.007812 175.878906 248.699219 174.640625 248.082031 173.558594 Z M 247.804688 180.519531 L 220.550781 227.78125 C 219.34375 229.886719 217.058594 231.183594 214.648438 231.183594 L 160.105469 231.183594 C 157.667969 231.183594 155.410156 229.886719 154.207031 227.78125 L 126.949219 180.519531 C 126.332031 179.46875 126.054688 178.292969 126.054688 177.117188 C 126.054688 175.941406 126.363281 174.765625 126.949219 173.714844 L 154.207031 126.449219 C 155.410156 124.347656 157.695312 123.046875 160.105469 123.046875 L 214.617188 123.046875 C 217.058594 123.046875 219.3125 124.347656 220.519531 126.449219 L 247.804688 173.714844 C 248.421875 174.765625 248.699219 175.941406 248.699219 177.117188 C 248.699219 178.292969 248.390625 179.46875 247.804688 180.519531 Z M 247.804688 180.519531 "/><g mask="url(#mask1)" transform="matrix(1,0,0,1,168,139)"><g xml:id="surface8" id="surface8" clip-path="url(#clip4)"><g clip-rule="nonzero" clip-path="url(#clip5)"><g style="fill:rgb(32.939148%,32.939148%,32.939148%);fill-opacity:1;"><g transform="translate(1.620007, 64.337863)"><path style="stroke:none;" d="M 10.203125 -24.359375 C 10.203125 -21.453125 10.582031 -18.804688 11.34375 -16.421875 C 12.113281 -14.035156 13.179688 -11.984375 14.546875 -10.265625 C 15.910156 -8.554688 17.539062 -7.238281 19.4375 -6.3125 C 21.332031 -5.382812 23.414062 -4.921875 25.6875 -4.921875 C 27.957031 -4.921875 29.925781 -5.1875 31.59375 -5.71875 C 33.257812 -6.257812 34.878906 -6.992188 36.453125 -7.921875 L 38.453125 -2.4375 C 36.742188 -1.507812 34.789062 -0.734375 32.59375 -0.109375 C 30.394531 0.515625 27.835938 0.828125 24.921875 0.828125 C 21.722656 0.828125 18.816406 0.25 16.203125 -0.90625 C 13.585938 -2.0625 11.332031 -3.710938 9.4375 -5.859375 C 7.539062 -8.015625 6.070312 -10.628906 5.03125 -13.703125 C 3.988281 -16.785156 3.46875 -20.25 3.46875 -24.09375 C 3.46875 -27.789062 3.988281 -31.191406 5.03125 -34.296875 C 6.070312 -37.398438 7.5625 -40.070312 9.5 -42.3125 C 11.445312 -44.550781 13.796875 -46.296875 16.546875 -47.546875 C 19.304688 -48.796875 22.375 -49.421875 25.75 -49.421875 C 28.113281 -49.421875 30.234375 -49.203125 32.109375 -48.765625 C 33.984375 -48.328125 35.753906 -47.710938 37.421875 -46.921875 L 35.40625 -41.375 C 33.96875 -42.070312 32.492188 -42.628906 30.984375 -43.046875 C 29.484375 -43.460938 27.71875 -43.671875 25.6875 -43.671875 C 23.46875 -43.671875 21.40625 -43.238281 19.5 -42.375 C 17.601562 -41.519531 15.960938 -40.257812 14.578125 -38.59375 C 13.191406 -36.925781 12.113281 -34.898438 11.34375 -32.515625 C 10.582031 -30.140625 10.203125 -27.421875 10.203125 -24.359375 Z M 10.203125 -24.359375 "/></g></g></g></g><mask xml:id="mask1" id="mask1"><g filter="url(#alpha)"><rect x="0" width="375" y="0" height="374.999991" style="fill:rgb(0%,0%,0%);fill-opacity:0.6;stroke:none;"/></g></mask></g><g style="fill:rgb(100%,100%,100%);fill-opacity:1;"><g transform="translate(166.879405, 199.662731)"><path style="stroke:none;" d="M 10.203125 -24.359375 C 10.203125 -21.453125 10.582031 -18.804688 11.34375 -16.421875 C 12.113281 -14.035156 13.179688 -11.984375 14.546875 -10.265625 C 15.910156 -8.554688 17.539062 -7.238281 19.4375 -6.3125 C 21.332031 -5.382812 23.414062 -4.921875 25.6875 -4.921875 C 27.957031 -4.921875 29.925781 -5.1875 31.59375 -5.71875 C 33.257812 -6.257812 34.878906 -6.992188 36.453125 -7.921875 L 38.453125 -2.4375 C 36.742188 -1.507812 34.789062 -0.734375 32.59375 -0.109375 C 30.394531 0.515625 27.835938 0.828125 24.921875 0.828125 C 21.722656 0.828125 18.816406 0.25 16.203125 -0.90625 C 13.585938 -2.0625 11.332031 -3.710938 9.4375 -5.859375 C 7.539062 -8.015625 6.070312 -10.628906 5.03125 -13.703125 C 3.988281 -16.785156 3.46875 -20.25 3.46875 -24.09375 C 3.46875 -27.789062 3.988281 -31.191406 5.03125 -34.296875 C 6.070312 -37.398438 7.5625 -40.070312 9.5 -42.3125 C 11.445312 -44.550781 13.796875 -46.296875 16.546875 -47.546875 C 19.304688 -48.796875 22.375 -49.421875 25.75 -49.421875 C 28.113281 -49.421875 30.234375 -49.203125 32.109375 -48.765625 C 33.984375 -48.328125 35.753906 -47.710938 37.421875 -46.921875 L 35.40625 -41.375 C 33.96875 -42.070312 32.492188 -42.628906 30.984375 -43.046875 C 29.484375 -43.460938 27.71875 -43.671875 25.6875 -43.671875 C 23.46875 -43.671875 21.40625 -43.238281 19.5 -42.375 C 17.601562 -41.519531 15.960938 -40.257812 14.578125 -38.59375 C 13.191406 -36.925781 12.113281 -34.898438 11.34375 -32.515625 C 10.582031 -30.140625 10.203125 -27.421875 10.203125 -24.359375 Z M 10.203125 -24.359375 "/></g></g></g></svg>