<svg width="60" height="60" viewBox="0 0 60 60" fill="none" xmlns="http://www.w3.org/2000/svg">
<mask id="mask0" mask-type="alpha" maskUnits="userSpaceOnUse" x="0" y="0" width="60" height="60">
<circle cx="30" cy="30" r="30" fill="#D1D1D1"/>
</mask>
<g mask="url(#mask0)">
<circle cx="30" cy="30" r="30" fill="#EEEEEE"/>
<path d="M38 41.875C35.4375 41.875 34.2054 43.2895 30 43.2895C25.7946 43.2895 24.5714 41.875 22 41.875C15.375 41.875 10 47.197 10 53.7566V56.0197C10 58.3625 11.9196 60.2632 14.2857 60.2632H45.7143C48.0804 60.2632 50 58.3625 50 56.0197V53.7566C50 47.197 44.625 41.875 38 41.875Z" fill="#D1D1D1"/>
<path d="M30 38.4605C37.0982 38.4605 42.8571 32.7584 42.8571 25.7303C42.8571 18.7021 37.0982 13 30 13C22.9018 13 17.1429 18.7021 17.1429 25.7303C17.1429 32.7584 22.9018 38.4605 30 38.4605Z" fill="#D1D1D1"/>
</g>
</svg>
