<svg width="32" height="32" viewBox="0 0 32 32" fill="none" xmlns="http://www.w3.org/2000/svg">
<path d="M3.14359 8.57735L16 1.1547L28.8564 8.57735V23.4226L16 30.8453L3.14359 23.4226V8.57735Z" stroke="#65B6BD" stroke-width="2"/>
<path d="M22.7361 23H22.1111V8.75C22.1111 8.34375 21.7673 8 21.3611 8H10.8611C10.4236 8 10.1111 8.34375 10.1111 8.75V23H9.48608C9.26733 23 9.11108 23.1875 9.11108 23.375V24H23.1111V23.375C23.1111 23.1875 22.9236 23 22.7361 23ZM13.1111 10.375C13.1111 10.1875 13.2673 10 13.4861 10H14.7361C14.9236 10 15.1111 10.1875 15.1111 10.375V11.625C15.1111 11.8438 14.9236 12 14.7361 12H13.4861C13.2673 12 13.1111 11.8438 13.1111 11.625V10.375ZM13.1111 13.375C13.1111 13.1875 13.2673 13 13.4861 13H14.7361C14.9236 13 15.1111 13.1875 15.1111 13.375V14.625C15.1111 14.8438 14.9236 15 14.7361 15H13.4861C13.2673 15 13.1111 14.8438 13.1111 14.625V13.375ZM14.7361 18H13.4861C13.2673 18 13.1111 17.8438 13.1111 17.625V16.375C13.1111 16.1875 13.2673 16 13.4861 16H14.7361C14.9236 16 15.1111 16.1875 15.1111 16.375V17.625C15.1111 17.8438 14.9236 18 14.7361 18ZM17.1111 23H15.1111V20.375C15.1111 20.1875 15.2673 20 15.4861 20H16.7361C16.9236 20 17.1111 20.1875 17.1111 20.375V23ZM19.1111 17.625C19.1111 17.8438 18.9236 18 18.7361 18H17.4861C17.2673 18 17.1111 17.8438 17.1111 17.625V16.375C17.1111 16.1875 17.2673 16 17.4861 16H18.7361C18.9236 16 19.1111 16.1875 19.1111 16.375V17.625ZM19.1111 14.625C19.1111 14.8438 18.9236 15 18.7361 15H17.4861C17.2673 15 17.1111 14.8438 17.1111 14.625V13.375C17.1111 13.1875 17.2673 13 17.4861 13H18.7361C18.9236 13 19.1111 13.1875 19.1111 13.375V14.625ZM19.1111 11.625C19.1111 11.8438 18.9236 12 18.7361 12H17.4861C17.2673 12 17.1111 11.8438 17.1111 11.625V10.375C17.1111 10.1875 17.2673 10 17.4861 10H18.7361C18.9236 10 19.1111 10.1875 19.1111 10.375V11.625Z" fill="#5D5D5D"/>
</svg>
